<svg fill="none" viewBox="0 0 1202 1202" xmlns="http://www.w3.org/2000/svg" xmlns:xlink="http://www.w3.org/1999/xlink"><clipPath id="a"><path d="m0 0h1201.4v1201.4h-1201.4z"/></clipPath><g clip-path="url(#a)" fill="#757575"><path d="m600 1201.4v-232c248 0 436-244 344-504-36-96-112-172-208-208-260-92-504 96-504 344h-232c0-392 380-700.0001 792-572.0001 180 56 324 200.0001 380 380.0001 128 412-180 792-572 792z"/><path d="m600 969.4h-232v-232h232zm-232 180h-176v-180h176zm-176-180h-152v-148h152z"/></g></svg>