<svg width="1202" height="1202" viewBox="0 0 1202 1202" fill="none" xmlns="http://www.w3.org/2000/svg">
<g clip-path="url(#clip0)">
<path d="M600 1201.4V969.4C848 969.4 1036 725.4 944 465.4C908 369.4 832 293.4 736 257.4C476 165.4 232 353.4 232 601.4H0C0 209.4 380 -98.6001 792 29.3999C972 85.3999 1116 229.4 1172 409.4C1300 821.4 992 1201.4 600 1201.4Z" fill="#808080"/>
<path d="M600 969.4H368V737.4H600V969.4ZM368 1149.4H192V969.4H368V1149.4ZM192 969.4H40V821.4H192V969.4Z" fill="#808080"/>
</g>
<defs>
<clipPath id="clip0">
<rect width="1201.4" height="1201.4" fill="white"/>
</clipPath>
</defs>
</svg>
