<svg xmlns="http://www.w3.org/2000/svg" fill="#757575" viewBox="0 0 30 21" xmlns:v="https://vecta.io/nano"><path d="M18.155 21c-2.64 0-5.12-1.028-6.986-2.894a1.31 1.31 0 1 1 1.853-1.853 7.21 7.21 0 0 0 5.133 2.126 7.21 7.21 0 0 0 5.133-2.126 1.31 1.31 0 1 1 1.853 1.853A9.81 9.81 0 0 1 18.155 21zM23.72 3.508c-3.092 0-5.537 2.378-5.537 5.463v3.274a1.43 1.43 0 0 0 1.429 1.426 1.43 1.43 0 0 0 1.429-1.426V8.873a2.67 2.67 0 0 1 2.678-2.717c1.407 0 2.802 1.104 2.802 2.717v3.373a1.43 1.43 0 0 0 1.429 1.426 1.43 1.43 0 0 0 1.429-1.426V8.972c-.001-3.085-2.57-5.463-5.66-5.463zM.001 9.156c0 2.56 1.84 4.333 4.272 4.5a9.24 9.24 0 0 0 .753.016 1.33 1.33 0 0 0 1.33-1.326c0-.733-.595-1.325-1.33-1.325H4.64c-1.018 0-1.748-.814-1.78-1.8V6.13h2.196a1.3 1.3 0 0 0 1.299-1.297 1.3 1.3 0 0 0-1.299-1.297H2.86v-2.1A1.43 1.43 0 1 0 0 1.426v7.73zm12.094-5.648C9.23 3.508 6.9 5.83 6.9 8.693s2.32 5.185 5.185 5.185 5.185-2.32 5.185-5.185-2.32-5.185-5.185-5.185zm0 7.7c-1.412 0-2.557-1.126-2.557-2.515s1.145-2.515 2.557-2.515 2.557 1.126 2.557 2.515-1.145 2.515-2.557 2.515z"/></svg>