<svg fill="none" height="21" viewBox="0 0 30 21" width="30" xmlns="http://www.w3.org/2000/svg"><g fill="#757575"><path d="m18.1545 21c-2.6391 0-5.1202-1.0279-6.9863-2.8939-.5116-.5116-.5116-1.3418 0-1.8534.5117-.5116 1.3418-.5123 1.8534 0 1.371 1.371 3.1939 2.1261 5.1329 2.1261s3.7619-.7551 5.1329-2.1261c.5116-.5116 1.3418-.5116 1.8534 0s.5116 1.3418 0 1.8534c-1.866 1.8667-4.3472 2.8939-6.9863 2.8939z"/><path d="m23.7207 3.50839c-3.0916 0-5.537 2.37831-5.537 5.46335v3.27416c0 .7877.6397 1.4261 1.4294 1.4261s1.4294-.6384 1.4294-1.4261v-3.37304c0-1.61253 1.2714-2.71674 2.6782-2.71674 1.4075 0 2.8017 1.10421 2.8017 2.71674v3.37304c0 .7877.6397 1.4261 1.4294 1.4261s1.4294-.6384 1.4294-1.4261v-3.27416c-.0007-3.08504-2.5688-5.46335-5.6605-5.46335z"/><path d="m.00066323 9.15623c0 2.56017 1.84146677 4.33327 4.27219677 4.49977.13073.0107.51694.0239.75318.016.73393 0 1.32851-.5933 1.32851-1.3259 0-.7319-.59458-1.3252-1.32851-1.3252h-.38754c-1.01795 0-1.7479-.8142-1.77975-1.80097v-3.091h2.19649c.71734 0 1.29931-.58065 1.29931-1.29666s-.58131-1.29666-1.29931-1.29666h-2.19649v-2.10955c0-.787685-.6397-1.42606-1.42938-1.42606-.789005 0-1.42937.638375-1.42937 1.42606v3.40621 4.32396z"/><path d="m12.0946 3.50839c-2.86339 0-5.18463 2.32124-5.18463 5.18464 0 2.86337 2.32124 5.18467 5.18463 5.18467 2.8634 0 5.1846-2.3213 5.1846-5.18467 0-2.8634-2.3212-5.18464-5.1846-5.18464zm0 7.70031c-1.4121 0-2.55681-1.1261-2.55681-2.51501 0-1.38889 1.14471-2.51501 2.55681-2.51501s2.5568 1.12612 2.5568 2.51501c0 1.38891-1.1447 2.51501-2.5568 2.51501z"/></g></svg>