<svg width="634" height="519" viewBox="0 0 634 519" fill="none" xmlns="http://www.w3.org/2000/svg">
<g filter="url(#filter0_d)">
<path d="M63.9603 20.4043V107.878H161.126V167.326C161.126 175.243 160.622 177.883 154.707 177.883C150.302 177.883 148.036 174.364 148.036 167.326V138.796H15V152.872C15 194.598 26.0759 224.51 48.2276 242.608C70.3793 260.707 105.872 269.756 154.707 269.756C172.705 269.756 188.69 268.876 202.409 266.991C216.128 265.105 229.091 261.586 241.048 256.559C253.005 251.658 262.948 245.122 270.626 236.953C285.981 220.74 295.169 195.352 295.169 160.664L295.421 20.4043H63.9603Z" fill="white"/>
<path d="M450.483 15C403.033 15 366.659 25.8086 341.234 47.4257C315.684 69.0429 302.972 99.7091 302.972 139.299V143.195C302.972 183.287 315.559 214.456 340.857 236.576C366.029 258.696 402.403 269.756 449.979 269.756C498.184 269.756 535.188 258.696 560.738 236.576C586.288 214.456 599 183.287 599 143.195V139.299C599 99.8347 586.036 69.2942 560.234 47.5514C534.307 25.8086 497.681 15 450.483 15ZM457.657 168.582C457.657 175.118 456.147 178.134 449.979 178.134C445.574 178.134 443.309 174.992 443.309 168.582V116.676C443.309 110.266 445.7 107.124 450.483 107.124C456.021 107.124 457.657 110.141 457.657 116.676V168.582Z" fill="white"/>
<path d="M334.06 304.904C334.06 280.899 321.6 262.299 296.679 249.102C271.759 236.031 236.266 229.496 190.2 229.496C93.0345 229.496 44.5776 256.517 44.5776 316.467V317.221C44.5776 342.483 52.381 360.958 67.8621 372.647C83.3431 384.461 110.655 390.745 149.798 391.373L189.193 392.127C195.234 392.127 198.255 394.515 198.255 399.291V399.542C198.255 403.438 195.99 406.58 191.081 406.58C186.55 406.58 183.278 402.936 183.278 398.034V396.777H45.081V401.679C45.081 427.946 58.0448 448.181 83.9724 462.509C109.774 476.836 145.519 484 191.081 484C239.664 484 276.541 475.579 301.714 458.738C326.886 441.897 339.472 418.646 339.472 388.985V386.471C339.472 360.204 331.921 341.729 316.691 331.046C301.462 320.363 278.052 314.708 246.46 313.828L198.003 312.571C186.298 312.194 182.774 310.811 182.774 305.91V305.659C182.774 301.762 186.172 299.5 191.081 299.5C196.367 299.5 199.01 302.014 199.01 306.915V307.921H334.06V304.904Z" fill="white"/>
<path d="M479.557 382.073H565.898V330.292H479.557V322.374H568.164V234.9H345.766V478.093H568.793V390.619H479.557V382.073Z" fill="white"/>
<path d="M63.9603 12.9043H56.4603V20.4043V107.878V115.378H63.9603H153.626V131.296H148.036H15H7.5V138.796V152.872C7.5 195.783 18.9021 228.334 43.4824 248.417C48.0402 252.14 53.0776 255.486 58.5833 258.463C44.2534 273.3 37.0776 292.692 37.0776 316.467V317.221C37.0776 344.068 45.447 365.111 63.3262 378.619C68.9091 382.877 75.7027 386.414 83.644 389.277H45.081H37.581V396.777V401.679C37.581 431.078 52.4013 453.627 80.3314 469.065C107.694 484.26 144.879 491.5 191.081 491.5C240.329 491.5 278.938 483 305.884 464.972C320.611 455.119 331.435 443.108 338.266 429.05V478.093V485.593H345.766H568.793H576.293V478.093V390.619V383.119H573.398V382.073V330.292V329.874H575.664V322.374V234.9V232.468C596.405 209.591 606.5 179.566 606.5 143.195V139.299C606.5 98.0249 592.845 65.224 565.067 41.8162L565.061 41.8104L565.054 41.8047C537.321 18.5478 498.741 7.5 450.483 7.5C401.992 7.5 363.632 18.5392 336.38 41.7084C320.554 55.1015 309.411 71.6727 302.794 91.1858L302.921 20.4177L302.934 12.9043H295.421H63.9603ZM300.916 186.005C307.136 208.35 318.73 227.189 335.913 242.215C336.688 242.896 337.472 243.567 338.266 244.227V283.685C332.572 266.522 319.607 252.756 300.189 242.474L300.176 242.467L300.163 242.46C294.644 239.566 288.673 236.989 282.254 234.722C291.654 222.01 298.032 205.69 300.916 186.005ZM338.266 315.421V344.744C334.11 336.769 328.401 330.099 320.998 324.906C315.633 321.142 309.456 317.995 302.508 315.421H334.06H338.266Z" stroke="black" stroke-width="15"/>
</g>
<defs>
<filter id="filter0_d" x="0" y="0" width="634" height="519" filterUnits="userSpaceOnUse" color-interpolation-filters="sRGB">
<feFlood flood-opacity="0" result="BackgroundImageFix"/>
<feColorMatrix in="SourceAlpha" type="matrix" values="0 0 0 0 0 0 0 0 0 0 0 0 0 0 0 0 0 0 127 0"/>
<feOffset dx="20" dy="20"/>
<feColorMatrix type="matrix" values="0 0 0 0 0 0 0 0 0 0 0 0 0 0 0 0 0 0 1 0"/>
<feBlend mode="normal" in2="BackgroundImageFix" result="effect1_dropShadow"/>
<feBlend mode="normal" in="SourceGraphic" in2="effect1_dropShadow" result="shape"/>
</filter>
</defs>
</svg>
