<svg xmlns="http://www.w3.org/2000/svg" fill="none" viewBox="0 0 224 203" xmlns:v="https://vecta.io/nano"><filter id="A" color-interpolation-filters="sRGB" filterUnits="userSpaceOnUse" height="202.25" width="223.891" x="0" y="0"><feFlood flood-opacity="0" result="A"/><feColorMatrix in="SourceAlpha" values="0 0 0 0 0 0 0 0 0 0 0 0 0 0 0 0 0 0 127 0"/><feOffset dx="10" dy="10"/><feColorMatrix values="0 0 0 0 0 0 0 0 0 0 0 0 0 0 0 0 0 0 1 0"/><feBlend in2="A"/><feBlend in="SourceGraphic"/></filter><g filter="url(#A)"><g fill="#fff"><path d="M102.61 74.953c-.4 4.22-2.617 7.656-6.68 10.313-3.984 2.578-9.492 3.906-16.523 3.984H26.203c-7.03-.078-12.578-1.406-16.64-3.984C5.578 82.61 3.39 79.172 3 74.953V61.36c.703-5.547 4.61-8.516 11.72-8.906h9.375c7.11.39 11.016 3.36 11.72 8.906v5.86h34.22V11.79C70.734 6.32 74.64 3.39 81.75 3h9.14c7.11.39 11.015 3.36 11.718 8.906z"/><path d="M134.72 89.25c-7.03-.078-12.578-1.406-16.64-3.984-3.984-2.656-6.172-6.094-6.562-10.312V17.297c.4-4.22 2.578-7.617 6.562-10.195 4.063-2.656 9.6-4.023 16.64-4.102h52.97c7.03.078 12.54 1.445 16.523 4.102 4.062 2.578 6.29 5.977 6.68 10.195v57.656c-.39 4.22-2.618 7.656-6.68 10.313-3.984 2.578-9.492 3.906-16.523 3.984zm43.476-22.03V25.03h-33.867V67.22z"/><path d="M8.39 143.078c-3.203-1.953-5-5.234-5.39-9.844v-15.937c.39-4.22 2.578-7.617 6.563-10.195 4.063-2.657 9.61-4.024 16.64-4.102h53.203c7.03.078 12.54 1.445 16.524 4.102 4.063 2.578 6.29 5.976 6.68 10.195v13.594c-.703 5.547-4.61 8.515-11.718 8.906h-9.375c-7.11-.39-11.016-3.36-11.72-8.906v-5.86H35.812v4.805l61.406 19.336c3.203 1.953 5 5.234 5.4 9.844v15.937c-.4 4.22-2.617 7.656-6.68 10.313-3.984 2.578-9.492 3.906-16.523 3.984H26.203c-7.03-.078-12.578-1.406-16.64-3.984C5.578 182.61 3.39 179.172 3 174.953V161.36c.703-5.547 4.61-8.515 11.72-8.906h9.375c7.11.39 11.016 3.36 11.72 8.906v5.86h33.984v-4.805z"/><path d="M111.516 117.297c.4-4.22 2.578-7.617 6.562-10.195 4.063-2.657 9.6-4.024 16.64-4.102h69.843c4.063.156 6.172 2.656 6.33 7.5v7.266c-.157 4.843-2.344 7.343-6.563 7.5h-60.234v10.078h55.78c4.063.156 6.172 2.656 6.328 7.5v6.562c-.156 4.844-2.265 7.344-6.328 7.5h-55.78v10.078h60.234c4.22.157 6.406 2.657 6.563 7.5v7.266c-.157 4.844-2.266 7.344-6.33 7.5H134.72c-7.03-.078-12.578-1.406-16.64-3.984-3.984-2.657-6.172-6.094-6.562-10.313z"/></g><path d="M104.103 75.09l.006-.07-.012-63.305c-.394-3.112-1.718-5.63-4.037-7.392-2.277-1.73-5.362-2.618-9.087-2.823l-.04-.002H81.71l-.04.002c-3.722.205-6.804 1.08-9.08 2.788-2.32 1.74-3.65 4.228-4.045 7.308l-.012.095V65.72h-31.22v-4.454l-.012-.094c-.395-3.112-1.718-5.63-4.038-7.392-2.277-1.73-5.362-2.618-9.087-2.823l-.04-.002h-9.457l-.04.002c-3.726.205-6.8 1.093-9.087 2.823-2.32 1.763-3.643 4.28-4.037 7.392l-.012.094v13.758l.006.07c.438 4.732 2.918 8.552 7.224 11.422l.014.01.014.01c4.383 2.78 10.24 4.138 17.428 4.218h.008 53.228c7.187-.08 13.01-1.436 17.322-4.225l.006-.004c4.382-2.865 6.913-6.686 7.352-11.43zm30.6 15.66h.008 52.994c7.187-.08 13.01-1.436 17.322-4.225l.006-.004c4.382-2.865 6.913-6.686 7.352-11.43l.007-.07-.007-57.864c-.44-4.743-2.97-8.527-7.355-11.315-4.313-2.87-10.14-4.264-17.325-4.344h-.008-52.994c-7.194.08-13.056 1.477-17.442 4.344-4.316 2.794-6.8 6.58-7.238 11.314l-.006.07.006 57.864c.438 4.732 2.918 8.552 7.224 11.422l.014.01.014.01c4.383 2.78 10.24 4.138 17.428 4.218zM7.6 144.36l.156.095.174.055 60.357 19.005v2.205H37.312v-4.454l-.012-.094c-.395-3.112-1.718-5.63-4.038-7.393-2.277-1.73-5.362-2.618-9.087-2.823l-.04-.002h-9.457l-.04.002c-3.726.205-6.8 1.093-9.087 2.823-2.32 1.763-3.643 4.28-4.037 7.393l-.012.094v13.757l.006.07c.438 4.732 2.918 8.552 7.224 11.423l.014.01.014.01c4.383 2.782 10.24 4.138 17.428 4.218h53.236c7.187-.08 13.01-1.436 17.322-4.225l.006-.004c4.382-2.865 6.913-6.685 7.352-11.43l.006-.07-.005-16.133c-.42-4.962-2.397-8.737-6.104-10.998l-.156-.095-.174-.055-60.357-19.005v-2.205h30.984v4.454l.012.094c.394 3.112 1.718 5.63 4.037 7.393 2.277 1.73 5.362 2.618 9.087 2.823l.04.002 9.5-.002c3.725-.205 6.8-1.093 9.087-2.823 2.32-1.763 3.643-4.28 4.037-7.393l.012-.094-.006-13.826c-.44-4.744-2.97-8.527-7.355-11.315-4.313-2.87-10.14-4.264-17.325-4.344H26.187c-7.194.08-13.056 1.478-17.442 4.344-4.316 2.794-6.8 6.58-7.238 11.315l-.006.07v16.07l.005.063c.42 4.962 2.397 8.737 6.104 10.998zm102.412-27.2l-.006.07.006 57.863c.438 4.732 2.918 8.552 7.224 11.423l.028.018c4.383 2.782 10.24 4.138 17.428 4.218h69.918c2.343-.1 4.327-.876 5.718-2.524 1.355-1.606 1.968-3.824 2.052-6.427l.001-.024-.001-7.338c-.084-2.614-.722-4.84-2.128-6.447-1.436-1.64-3.475-2.415-5.878-2.504l-.028-.001h-58.762v-7.078l54.34-.001c2.342-.1 4.327-.876 5.717-2.524 1.356-1.606 1.968-3.823 2.052-6.426l.001-.025-.001-6.635c-.084-2.603-.696-4.82-2.052-6.426-1.4-1.648-3.375-2.434-5.717-2.524l-.03-.001h-54.3v-7.078l58.8-.001c2.403-.09 4.442-.864 5.878-2.504 1.406-1.607 2.044-3.833 2.128-6.447l.001-.024-.001-7.338c-.084-2.603-.697-4.82-2.052-6.427-1.39-1.648-3.375-2.434-5.718-2.524h-.03-69.89c-7.194.08-13.056 1.478-17.442 4.344-4.316 2.794-6.8 6.58-7.238 11.315zm35.806-90.628h30.867V65.72h-30.867z" stroke="#000" stroke-width="3"/></g></svg>