<svg fill="none" viewBox="0 0 224 203" xmlns="http://www.w3.org/2000/svg" xmlns:xlink="http://www.w3.org/1999/xlink"><filter id="a" color-interpolation-filters="sRGB" filterUnits="userSpaceOnUse" height="202.25" width="223.891" x="0" y="0"><feFlood flood-opacity="0" result="BackgroundImageFix"/><feColorMatrix in="SourceAlpha" type="matrix" values="0 0 0 0 0 0 0 0 0 0 0 0 0 0 0 0 0 0 127 0"/><feOffset dx="10" dy="10"/><feColorMatrix type="matrix" values="0 0 0 0 0 0 0 0 0 0 0 0 0 0 0 0 0 0 1 0"/><feBlend in2="BackgroundImageFix" mode="normal" result="effect1_dropShadow"/><feBlend in="SourceGraphic" in2="effect1_dropShadow" mode="normal" result="shape"/></filter><g filter="url(#a)"><g fill="#fff"><path d="m102.609 74.9531c-.39 4.2188-2.6168 7.6563-6.6793 10.3125-3.9844 2.5782-9.4922 3.9063-16.5235 3.9844h-53.2031c-7.0312-.0781-12.5781-1.4062-16.6406-3.9844-3.98438-2.6562-6.17188-6.0937-6.5625-10.3125v-13.5937c.70312-5.5469 4.60938-8.5156 11.7188-8.9063h9.375c7.1093.3907 11.0156 3.3594 11.7187 8.9063v5.8594h34.2187v-55.4297c.7032-5.46879 4.6094-8.39848 11.7188-8.7891h9.1406c7.1094.39062 11.0154 3.35938 11.7184 8.9062z"/><path d="m134.719 89.25c-7.031-.0781-12.578-1.4062-16.641-3.9844-3.984-2.6562-6.172-6.0937-6.562-10.3125v-57.6562c.39-4.2188 2.578-7.61721 6.562-10.19534 4.063-2.65625 9.61-4.02344 16.641-4.10156h52.969c7.031.07812 12.539 1.44531 16.523 4.10156 4.062 2.57813 6.289 5.97654 6.68 10.19534v57.6562c-.391 4.2188-2.618 7.6563-6.68 10.3125-3.984 2.5782-9.492 3.9063-16.523 3.9844zm43.476-22.0312v-42.1876h-33.867v42.1876z"/><path d="m8.39062 143.078c-3.20312-1.953-5-5.234-5.39062-9.844v-15.937c.39062-4.219 2.57812-7.617 6.5625-10.195 4.0625-2.657 9.6094-4.024 16.6406-4.102h53.2031c7.0313.078 12.5391 1.445 16.5235 4.102 4.0625 2.578 6.2893 5.976 6.6793 10.195v13.594c-.703 5.547-4.609 8.515-11.7184 8.906h-9.375c-7.1094-.391-11.0156-3.359-11.7187-8.906v-5.86h-33.9844v4.805l61.4063 19.336c3.2032 1.953 5.0002 5.234 5.3902 9.844v15.937c-.39 4.219-2.6168 7.656-6.6793 10.313-3.9844 2.578-9.4922 3.906-16.5235 3.984h-53.2031c-7.0312-.078-12.5781-1.406-16.6406-3.984-3.98438-2.657-6.17188-6.094-6.5625-10.313v-13.594c.70312-5.547 4.60938-8.515 11.7188-8.906h9.375c7.1093.391 11.0156 3.359 11.7187 8.906v5.86h33.9844v-4.805z"/><path d="m111.516 117.297c.39-4.219 2.578-7.617 6.562-10.195 4.063-2.657 9.61-4.024 16.641-4.102h69.843c4.063.156 6.172 2.656 6.329 7.5v7.266c-.157 4.843-2.344 7.343-6.563 7.5h-60.234v10.078h55.781c4.063.156 6.172 2.656 6.328 7.5v6.562c-.156 4.844-2.265 7.344-6.328 7.5h-55.781v10.078h60.234c4.219.157 6.406 2.657 6.563 7.5v7.266c-.157 4.844-2.266 7.344-6.329 7.5h-69.843c-7.031-.078-12.578-1.406-16.641-3.984-3.984-2.657-6.172-6.094-6.562-10.313z"/></g><path d="m104.103 75.0914.006-.069v-.0693-63.0469-.0946l-.012-.094c-.394-3.11212-1.718-5.62949-4.037-7.39231-2.277-1.73048-5.3617-2.61834-9.0871-2.82303l-.0411-.00226h-.0412-9.1406-.0412l-.0411.00226c-3.722.20451-6.8036 1.08112-9.0794 2.78797-2.3204 1.7403-3.6489 4.22823-4.0448 7.30757l-.0123.0952v.0961 53.9297h-31.2187v-4.3594-.0947l-.0119-.094c-.3945-3.1121-1.718-5.6295-4.0375-7.3923-2.277-1.7305-5.3616-2.6183-9.0871-2.823l-.0411-.0023h-.0411-9.375-.0412l-.0411.0023c-3.7255.2047-6.81014 1.0925-9.08709 2.823-2.3195 1.7628-3.64301 4.2802-4.0375 7.3923l-.01191.094v.0947 13.5937.0693l.00639.069c.43814 4.732 2.9184 8.5519 7.22406 11.4223l.01405.0094.01426.009c4.38284 2.7814 10.23864 4.1379 17.42774 4.2178l.0083.0001h.0083 53.2031.0084l.0083-.0001c7.1867-.0798 13.0108-1.4355 17.3217-4.2249l.006-.0039c4.3824-2.8655 6.9134-6.6855 7.3524-11.4297zm30.599 15.6585.008.0001h.009 52.969.008l.008-.0001c7.187-.0798 13.011-1.4355 17.322-4.2249l.006-.0039c4.382-2.8655 6.913-6.6855 7.352-11.4297l.007-.069v-.0693-57.6562-.0693l-.007-.069c-.439-4.7433-2.97-8.52679-7.355-11.31461-4.313-2.86983-10.139-4.26406-17.325-4.3439l-.008-.00009h-.008-52.969-.009l-.008.00009c-7.194.07994-13.056 1.47734-17.442 4.34401-4.316 2.79364-6.8 6.5796-7.238 11.3145l-.006.069v.0693 57.6562.0693l.006.069c.438 4.732 2.918 8.5519 7.224 11.4223l.014.0094.014.009c4.383 2.7814 10.239 4.1379 17.428 4.2178zm-127.09229 53.6091.15606.095.17433.055 60.3568 19.005v2.205h-30.9844v-4.36-.094l-.0119-.094c-.3945-3.112-1.718-5.63-4.0375-7.393-2.277-1.73-5.3616-2.618-9.0871-2.823l-.0411-.002h-.0411-9.375-.0412l-.0411.002c-3.7255.205-6.81014 1.093-9.08709 2.823-2.3195 1.763-3.64301 4.281-4.0375 7.393l-.01191.094v.094 13.594.069l.00639.069c.43814 4.732 2.9184 8.552 7.22406 11.423l.01405.009.01426.009c4.38284 2.782 10.23864 4.138 17.42774 4.218h.0083.0083 53.2031.0084.0083c7.1867-.08 13.0108-1.436 17.3217-4.225l.006-.004c4.3824-2.865 6.9134-6.685 7.3524-11.43l.006-.069v-.069-15.937-.064l-.005-.063c-.42-4.962-2.397-8.737-6.1043-10.998l-.1561-.095-.1743-.055-60.3568-19.005v-2.205h30.9844v4.36.094l.0119.094c.3945 3.112 1.718 5.63 4.0375 7.393 2.2769 1.73 5.3616 2.618 9.087 2.823l.0411.002h.0412 9.375.0412l.0411-.002c3.7254-.205 6.8101-1.093 9.0871-2.823 2.319-1.763 3.643-4.281 4.037-7.393l.012-.094v-.094-13.594-.069l-.006-.069c-.439-4.744-2.97-8.527-7.3553-11.315-4.313-2.87-10.1393-4.264-17.3248-4.344h-.0083-.0084-53.2031-.0083-.0083c-7.1943.08-13.0561 1.478-17.44223 4.344-4.31567 2.794-6.79949 6.58-7.23788 11.315l-.00639.069v.069 15.937.064l.00536.063c.42047 4.962 2.39707 8.737 6.10435 10.998zm102.41229-27.2-.006.069v.069 57.656.069l.006.069c.438 4.732 2.918 8.552 7.224 11.423l.014.009.014.009c4.383 2.782 10.239 4.138 17.428 4.218h.008.009 69.843.029l.029-.001c2.343-.09 4.327-.876 5.718-2.524 1.355-1.606 1.968-3.824 2.052-6.427l.001-.024v-.024-7.266-.024l-.001-.024c-.084-2.614-.722-4.84-2.128-6.447-1.436-1.64-3.475-2.415-5.878-2.504l-.028-.001h-.028-58.734v-7.078h54.281.029l.029-.001c2.342-.09 4.327-.876 5.717-2.524 1.356-1.606 1.968-3.823 2.052-6.426l.001-.025v-.024-6.562-.024l-.001-.025c-.084-2.603-.696-4.82-2.052-6.426-1.39-1.648-3.375-2.434-5.717-2.524l-.029-.001h-.029-54.281v-7.078h58.734.028l.028-.001c2.403-.089 4.442-.864 5.878-2.504 1.406-1.607 2.044-3.833 2.128-6.447l.001-.024v-.024-7.266-.024l-.001-.024c-.084-2.603-.697-4.821-2.052-6.427-1.391-1.648-3.375-2.434-5.718-2.524l-.029-.001h-.029-69.843-.009-.008c-7.194.08-13.056 1.478-17.442 4.344-4.316 2.794-6.8 6.58-7.238 11.315zm35.806-90.6278h30.867v39.1876h-30.867z" stroke="#000" stroke-width="3"/></g></svg>